<svg xmlns="http://www.w3.org/2000/svg" viewBox="0 0 4000 4000"><path fill="#382f29" d="m2431.99,3492.74c-.63-3.81-3.83-11.61-6.53-17.54-4.26-8.97-13.41-27.94-18.26-37.88-3.26-6.62-7.44-15.05-11.56-23.46-7.69-15.66-15.26-31.19-16.77-34.53l-.66.29c-.28-.58-.53-1.17-.81-1.78-4.18-8.7-14.02-28.61-17.72-36.37-3.09-6.68-4.82-11.26-6.68-17.41-1.41-4.8-4.02-13.78-5.2-17.99-3.89-13.81-9.86-32.42-13.12-40.26-2.29-5.5-5.41-11.7-9.4-19.15-1.69-3.28-6.26-12.06-5.66-13.48.09-.23.5-.18.59-.38.11-.26-.28-3.83-1.38-11.09-1-6.11-2.26-10.3-4.75-15.58-3.2-6.73-6.86-13.09-9.98-16.46-2.83-2.98-12.75-9.65-14.86-10.72-1.36-.69-5.21-1.86-7.35-2.29-3.21-.64-6.86-1.03-9.18-.78-2.28.3-6.7,1.52-8.55,2.37-1.97.95-5.41,3.02-6.9,4.25-1.46,1.22-4.93,4.89-6.39,6.83-1.45,1.94-3.91,6.18-4.97,8.33-2.29,4.69-4.71,12.17-5.64,16.74-.75,3.87-1.81,14.84-1.63,17.6l-.87.57-.37,1.64c.99.55,1.42,1.1,1.56,2.38.11,1.1.34,2.89.4,3.59.24.83,5.03,16.32,6.16,22.12.86,4.59.81,11.68.13,18.02-.56,4.53-2.11,14.82-2.93,20.06-.8,6.25-1.67,15.29-1.38,19.28.21,3.05,1.7,12.7,2.56,17.27,1.02,4.72,3.09,13.92,4.2,18.41,1.6,6.28,2.9,13.5,3.23,18.09.19,2.54.3,25.86.4,36.49v.03c-.36,1.64-.73,3.39-1.12,5.2-1.63,7.86-3.34,16.77-4.15,22.2-.63,4.97-1.61,15.04-1.97,20.17-.25,5.03-.43,16.43-.3,19.65.22,5.25,1.07,12.88,2.11,19.68,1.12,6.7,2.21,12.04,3.88,19.08,1.25,4.83,4.14,14.93,5.15,17.45.68,1.7,5.94,10.98,7.74,12.96,1.84,2,11.89,10.52,14.12,12.25,4.33,3.29,12.36,8.35,17.03,10.8,8.26,4.32,25.13,10.99,36.47,14.49,6.49,1.87,13.6,3.63,18.68,4.37,2.33.36,7.26.79,8.62.79,2.33-.04,7.19-.77,9.46-1.4,3.97-1.16,11.77-5.56,15.66-8.39,3.34-2.45,10.64-8.88,14.11-12.12,3.37-3.25,9.66-10.28,12.84-14.66,1.86-2.58,9.13-14.3,10.54-17,2.07-4.06,7.3-16.28,7.88-17.91,1.35-3.89,3.74-14.26,3.95-17.34.1-1.51-.13-5.86-.39-7.43Z" class="color382f29 svgShape"/><path fill="#1e1917" d="m1866.41,3412.43l-2.01-.59c-2.06,3.5-4.17,7.47-5.64,10.62-.87,1.92-1.73,3.97-2.58,6.04l-.08.2.1,9.31c.09,7.99.18,16.63.24,22.84-.06,11.15-.32,33.19-.73,45.02-.45,7.21-1.66,26.36-1.39,32.64l.03.69,2.55,1.05,3.21,1.02,2.44.52.15-2.04c.44-6.16,1.78-24.91,1.9-31.95.05-9.32.02-30.09-.03-41.74.05-9.22.38-31.16,1.09-40.16.29-4.18.54-8.71.73-13.47Z" class="color1e1917 svgShape"/><path fill="#382f29" d="m1894.06,3334.05c-.92-4.42-4.89-13.82-7.31-17.87-2.64-4.44-9.48-13.22-11.52-15.82-3.16-3.9-6.48-7.76-9.7-11.51,0,0-7.19-8.38-9.61-11.18-.42-.49-.83-1-1.24-1.51-.6-.75-1.2-1.49-1.83-2.17-.25-.28-3.47-2.62-4.69-2.64-3.95-4.66-10.95-11.28-11.85-12.12-5.01-4.65-10.9-10.68-12.41-13.61-.83-1.65-2.18-5.09-2.88-7.38-.78-2.47-1.66-6.76-2.44-10.56-.66-3.24-1.24-6.04-1.69-7.49-1.13-3.55-5.81-13.81-7.93-16.67-1.08-1.41-4.6-4.24-6.34-5.34-1.71-1.07-5.77-3.32-7.88-3.94-1.41-.39-3.86-.64-6.1-.64-.97,0-1.8.05-2.45.15-2.57.37-6.78,2.43-8.85,3.59-2.14,1.18-5.44,3.61-6.41,4.47-2.76,2.48-9.89,10.87-12.41,13.91-3.19,3.98-8.49,12.01-10.89,16.54-2.04,3.87-5.9,12.41-7.63,17.21-1.74,4.91-4.17,13.82-5.26,18.33-.98,4.62-2.72,14.28-3.59,19.39-.69,4.84-1.92,14.66-2.43,19.61-.83,9.42-2.01,28.53-2.54,38.72-.36,10.28-1.16,29.79-1.75,39-.82,9.88-2.63,29.25-3.65,39.08-.56,4.4-1.53,11.74-2.45,18.65-1.18,8.91-2.2,16.61-2.26,17.45v.21s.05.21.05.21c.1.3-.63,1.91-1.93,4.59l-.26.53c-3.07,6.28-6.28,12.88-6.69,14.04-3.49,5.22-6.31,8.89-10.37,12.16l-.14.1-.58.58.16.39c-10.21,5.33-20.12,11.76-29.71,18.01l-3.48,2.27c-4.26,2.88-11.48,8.33-16.12,12.16-4.22,3.59-9.75,8.68-12.15,12.56-1.02,1.68-2.9,6.12-3.46,8-.63,2.27-.44,5.85.03,8.39.16.88,1.37,5.69,2.6,7.02,2.29,2.47,11.89,8.03,16.18,10.2,2.89,1.43,5.7,2.28,8.71,2.64.11.03,2.75.72,8.6,1.18.56.04,1.29.06,2.17.06,6.79,0,22.74-1.19,31.3-1.83l.42-.03c10.4-.88,34.67-3.16,41.55-4.11,5.6-.89,14.11-2.64,18.82-3.76,11.66-3.04,31.2-8.92,36.54-11.2,4.55-1.95,13.32-6.71,16.77-9.09,4.84-3.39,12.52-9.79,15.17-12.96,3.11-3.76,7.71-11.71,9.29-16.04,1.54-4.27,3.87-13.23,4.77-17.81.66-3.39,2.09-14.19,3.36-23.73.72-5.43,1.4-10.52,1.87-13.77,1.11-7.09,2.61-14.19,3.94-18.55.93-3.12,2.69-7.91,4.71-12.8.83-2.05,1.68-4.07,2.54-5.95.91-1.94,2.07-4.21,3.31-6.48-.15,3.07-.32,6.07-.51,8.86-.72,9.05-1.05,31.06-1.1,40.31.05,11.64.08,32.41.03,41.71-.12,6.97-1.46,25.67-1.9,31.82l-.09,1.22-.47.52.47.47c.16,3.23.25,4.01,1.45,4.01l.45-.06.26-.17s4.62-2.85,8.84-4.36c5.16-1.85,7.51-2.95,8.73-5.02,1.42-2.59,2.18-13.41,2.37-16.64,1.03-12.19,2.84-33.31,4.49-52.5l2.4-27.97c.41-6.48,1.77-28.63,1.99-41.43.08-6.87.13-18.93.13-28.71.39-1.56.72-2.96.9-4.04,1.67-9.71,2.48-16.27,2.55-20.66.03-2.65-.46-7.81-.96-10.23Z" class="color382f29 svgShape"/><path fill="#b3897d" d="m1651.99,2567.32l-52.7,712.24s363.87,240.27,818.07-11.44l-97.87-800.91-667.51,100.11Z" class="colorb3897d svgShape"/><path fill="#3f4149" d="M2381.65 1412.14c-27.56-29-72.64-77.96-102.14-107.41-32.4-34.2-71.32-65.85-94.82-106.47-29.09-54.82-52.77-135.41-1.92-184.27 47.48-38.28 91.59 8.6 125.59 44.04 29.78 28.43 40.35 45.76 69.08 75.05 35.38 36.69 70.33 66.81 103.49 104.22 46 43.68 95.9 87.97 117.62 149.39 41.6 106.12-43.36 181.91-131.94 96.12t-.05-.05c-.11-.05-.17-.16-.24-.22-.03 0-.05 0-.05-.03-.05-.05-.08-.08-.11-.08-.04-.03-.08-.11-.14-.11-2.1-1.9-16.01-13.55-9.24-8.4-20.55-18.57-54.19-41.08-75.24-62.81-.03.38.03.73.11 1.03zM1625.81 1412.14c27.56-29 72.64-77.96 102.14-107.41 32.4-34.2 71.32-65.85 94.82-106.47 29.09-54.82 52.77-135.41 1.92-184.27-47.48-38.28-91.59 8.6-125.59 44.04-29.78 28.43-40.35 45.76-69.08 75.05-35.38 36.69-70.33 66.81-103.49 104.22-46 43.68-95.9 87.97-117.62 149.39-41.6 106.12 43.36 181.91 131.94 96.12l.05-.05c.11-.05.17-.16.24-.22.03 0 .05 0 .05-.03.05-.05.08-.08.11-.08.04-.03.08-.11.14-.11 2.1-1.9 16.01-13.55 9.24-8.4 20.55-18.57 54.19-41.08 75.24-62.81.03.38-.03.73-.11 1.03z" class="color3f4149 svgShape"/><path fill="#ffca5f" d="m1985.68,1328.83c-86.59-98.74-184.77-186.73-265.23-291.98,7.15-6.91,14.94-14.57,22.57-21.18,47.69,42.08,82.86,93.18,120.24,144.16,36.06,46.43,76.31,92.43,120.4,131.57l-.02.05c.5,0,.94.15,1.26.52,40.86-39.46,84.72-80.55,122.21-123.73,20.53-22.38,49.94-62.09,70.21-84.88,25.28-26.72,59.6-55.55,90.06-76.43l.92-2.2c7.84,3.8,16.88,8.32,23.83,13.7.27.11.4.25.59.41.08,0,.17,0,.27,0v2.16c-5.59,2.09-5.12,1.94-13.12,4.07-6.46,4.4-19.47,15.08-25.72,19.76-44.52,29.76-85.16,80.84-119.33,121.69-48.71,53.18-99.25,110.23-148.4,163.02l-.74-.7Z" class="colorffca5f svgShape"/><path fill="#ffca5f" d="m2279.45,1023.86c-23.4,18.53-49.82,36.97-71.75,57.95-20.7,18.37-54.43,62.54-73.7,83.99-48.08,52.48-99.43,110.44-147.64,162.2-86.2-98.31-184.43-186.49-264.5-291.06,6.7-6.32,13.93-13.57,21.04-19.75,47.37,41.44,82.41,92.93,119.48,143.29,36.44,47,78.02,94.31,122.49,133.42,40.3-40.13,85.85-81.62,123.03-124.94,20.5-22.34,50.08-62.26,70.21-84.88,25.22-26.67,59.82-55.73,90.12-76.42l.62-1.49c8.36,3.73,16.58,9.15,24.12,13.75-5.74,1.89-5.21,2.04-13.4,4.11l-.14-.16Z" class="colorffca5f svgShape"/><path fill="#3f4149" d="m2302.58,1373.47c-3.49-49.8-3.09-108.32-8.59-157.66-7.57-60.22-21.75-121.86-28.01-182.91-23.51,18.28-48.28,36.34-68.57,57.44-14.16,13.72-50.38,59.52-64.2,74.74-48.04,52.45-98.48,109.36-146.87,161.38-81.61-93.02-172.72-176.28-250.86-273.64-12.52,60.15-11.08,128.66-19.51,190.44-17.53,131.9-33.19,258.68-46.57,392.83-5.59,66.34-12.31,105.61,1.94,165.52,18.17,64.83,63.08,120.86,116.02,161.43,38.31,26.52,86.46,41.4,132.76,49.38,82.16,12.88,171.29-8.07,242.78-49.1,50.45-34.87,87.96-90.54,114.2-145.16,9.02-23.9,10.77-46.42,12.79-73.36,2.54-34.73,8.36-86.88,9.38-120.53.02-76.72,6.66-173.1,3.32-250.78Z" class="color3f4149 svgShape"/><path fill="#2e2f35" d="m2269.31,1005.18c-50.54-20.82-100.02-52.59-154.83-60.34,7.94,7.86,25.05,17.54,20.41,30.55-9.24,24.77-22.8,50.91-36.98,73.01-16.01,21.33-32.18,51.16-54.73,64.25-6.55,3.56-12.48-16.95-15.34-21.18-18.61,50.99-35.36,104.38-45.4,157.94-13.15-51.94-33.15-108.4-49.5-159.52l1.42-1.42-5.37-1.11c-12.57,34.08-36.56-35.89-38.11-47.64-3.82-22.05-8.66-78.26,3.39-96.45-56.07,7.93-110.06,37.72-152.64,74.08,52.05,45.36,89.08,103.68,130.81,157.81,25.36,30.28,53.92,66.05,83.61,93.03,9.12,8.19,17.5,18.43,27.37,25.32l.34.22c.1.12.4,3.79.44,3.93.05-.12,1.79-3.53,1.78-3.57h0c40.79-39.93,85.15-80.94,122.74-124.43,20.51-22.36,49.94-62.09,70.21-84.88,25.33-26.75,59.63-55.59,90.19-76.42l1.16-2.76-.95-.43Z" class="color2e2f35 svgShape"/><path fill="#f7a991" d="m2077.41,948.99c-.03-7.28-.09-20.96-.09-20.96-19.15,16.26-43.4,22.89-68.39,19.15-33.04-2.81-63.1-11.42-87.54-33.81h-2.84c.12,12.15-1.49,29.46-1.95,40.6l-2.6.7c21.51,23.48,46.51,46.02,66.86,68.31,1.49,1.19,3.24,4.44,5.27,3.66,29.18-24.45,64.59-50.86,92.83-75.91l-1.54-1.73Z" class="colorf7a991 svgShape"/><path fill="#d78972" d="m2077.25,922.95c-.58-28.3-6.79-58.98-7.29-85.77-22.11-1.09-49.35-.43-70.47.36-26.28.21-55.8-5.37-81.92-3.44,1.11,23.87,1.15,58.66.97,81.43h2.01c36.6,33.26,116.7,50.46,156.79,15.26l-.08-7.85Z" class="colord78972 svgShape"/><path fill="#f8eee2" d="m2137.89,968.73c-4.83-16.31-34.57-35.75-49.74-42.94-4.31-2.02-7.83-5.03-13.07-3.82.1,6.04.17,25.44.17,27.85l.62.7c-27.39,24.41-62.21,49.95-90.35,73.95-.32-.24-.88-.76-1.16-1.06l-.07.05c-20.22-22.23-44.68-44.32-66.24-67.64l.64-.17c.15-5.82,1.12-18.75,1.59-26.87-5.89.57-10.34,4.25-14.88,5.71-9.86,3.54-16.96,9.49-18.11,20.41-4.56,27.86-3.07,57.57,1.45,85.25,2.02,13.47,25.86,83.46,41.37,49.66l.68.14c13.71,45.92,33.77,97.48,45.03,144.09,1.12,6.28,3.62,11.95,4.98,17.75-.21,1.38,1.04,2.08,1.79,2.81,12.27-52.58,26.6-106.99,45.37-157.74,3.22,5.84,5.14,13.1,10.34,17.52,10.37,3.64,21.64-12.96,28.33-19.79,26.92-32.43,51.22-71.26,67.53-110.92,1.88-4.86,4.27-9.65,3.73-14.92Z" class="colorf8eee2 svgShape"/><path fill="#3f4149" d="m2025.6,3066.34c-8.59-42.43-17.04-137.55-23.1-185.24-6.5-51.01-5.01-103.1-8.75-149.99-13.78,84.4-23.13,161.04-26.58,251.83-2.39,43.7-2.21,59.55-5.54,86.02-3.84,13.63-21.69,6.71-40.74,8.84-115.64-4.91-229.77-23.42-332.53-79.64-19.88-12.15-44.06-17.24-46.6-31.63-8.94-41.64-3.9-110.69-2.35-160.36,3.9-94.55,9.52-179.76,14.8-275.31,10-162.24,23.69-318.26,57.41-477.81,16.49-71.49,33.87-174.09,42.61-249.16,8.43-51.37,3.68-96.36,17.37-143.29,26.86-88.46,86.66-159.98,171.25-199.61,106.41-64.58,247.46-55.68,337.25,32.9,94.41,81.39,117.44,194.62,127.08,314.99,6.54,77.58,17.41,145.19,27.56,229,23.38,190.44,44.3,384.88,63.97,571.99,7.58,77.17,15.55,160.63,30.85,236.41,7.64,35.1,18.3,69.33,27.99,103.79l-1.4.32c-13.2,15.17-25.68,35.01-44.82,44.41-64.71,33.72-138.64,47.69-211.18,59.6-45.62,6.03-53.18,5.98-104.63,6.05-38.41,1.98-46.72-4.54-69.62,6.89-.08-.32-.1-.6-.3-1Z" class="color3f4149 svgShape"/><path fill="#ddc4ab" d="m2028.09,1102.49c-12.06-18.72-22.3-38.73-30.44-59.46-.27-.7-.54-1.41-.82-2.12-2.15-5.63-4.37-11.44-8.86-14.46-1.59,1.09-3.55.05-4.81-.61-.67-.35-1.68-.89-2.05-.76-.1.03-.28.21-.47.61l-.13.23-52.01,71.2-2.18-1.59,51.94-71.1c.49-.98,1.16-1.62,1.99-1.9,1.47-.49,2.9.27,4.17.94,1.82.97,2,.86,2.23.53l.7-1.01,1.07.6c5.93,3.3,8.58,10.25,10.93,16.38.27.71.54,1.41.81,2.1,8.07,20.57,18.23,40.41,30.19,58.98l-2.27,1.46Z" class="colorddc4ab svgShape"/><path fill="#b3897d" d="m2307.06,1097.88c.93-3.65,1.15-8.6,1.15-11.6-1.54-.49-3.28-.98-4.86-1.44-.12-40.78-16.34-65.39-49.18-88.1-4.71-6.4-9.89-16.72-15.61-21.41-1.67-2.21-1.36-3.9-5.2-4.26-2.95-.43-8.68-.65-11.2-2.62-21.2-20-7.57-22.33-41.73-33.3-28.72-143.63,50.87-402.13-129.27-466.22-.04-.06-.1-.13-.16-.21.19-.11.49-.68.61-.87.12-2.2-14.2-3.54-14.42-3.86-23.33-1.53-20.47-1.61-48.51-1.97-81.06-3.5-151.41,43.13-180.57,118.04-27.71,72.36-11.68,161-.15,234.05-6.06,20.51-6.22,46.85-3.27,67.58-10.29,14.38-9.2,34.01-8.04,51.37-26.84,30.9-39.4,35.87-29.34,80.54-3.72,7.72-12.95,12.35-15.93,20.08.86,10.61,1.92,23.94,8.67,32.15,34.68,24.15,75.69,47.63,114.11,62.36,34.95,13.65,90.75,12.6,125.78,10.66,31.22-3.26,71.52-18.59,102.77-25.44,33.58-6.31,69.83-7.59,104.34-8.14,10,0,29.58,1.49,39.66,2.5,14.09.8,69.67,18.59,60.35-9.9Zm-175.19-426.39c-3.52,64.45-4.21,163.6-54.63,215.21-34.67,33.15-93.16,42.58-138.73,26.57-89.97-34.79-102.59-145.56-103.98-231.27l-1.45-.25c35.03-61.4,70.27-105.54,145.68-104.96,81.57-.99,111.3,27.29,154.52,93.37l-1.42,1.33Z" class="colorb3897d svgShape"/><path fill="#f7a991" d="m2135.59,669.71c-45.59-70.18-76.97-97.2-162.71-95-74.37,1.54-108.89,48.54-143.3,108.64l2.68.46c2.25,80.62,11.86,178.09,86.63,222.74,39.22,21.5,91.65,22.39,131.25,1.52l.06.09c81.26-41.57,78.85-160.41,83.8-235.72l2.11-1.97-.53-.77Z" class="colorf7a991 svgShape"/><path fill="#805a51" d="M2157.04 703.28c-.44 0-.88-.19-1.17-.56-7.77-9.68-15.33-20.88-23.34-32.75-24.18-35.83-51.6-76.44-93.85-85.94-117.83-25.23-166.37 20.7-213.89 114.52.33.28.53.69.53 1.15 0 .83-.67 1.5-1.5 1.5h-1.29c-.52 0-1.01-.27-1.28-.72-.27-.44-.3-1-.06-1.47 28.18-56.01 53.33-87.75 84.08-106.11 34.07-20.35 76.68-24.1 134.07-11.82 43.44 9.77 71.2 50.9 95.7 87.2 7.97 11.81 15.5 22.96 23.19 32.55.52.65.42 1.59-.23 2.11-.28.22-.61.33-.94.33zM1808.13 698.05c-.14 0-.28-.02-.42-.06-.72-.21-1.18-.93-1.06-1.67 8.87-57.88 49.43-117.6 66.46-140.59.5-.67 1.44-.81 2.1-.31.67.49.81 1.44.31 2.1-16.53 22.31-55.39 79.47-65.29 135.52.45.43.61 1.11.34 1.71l-1.07 2.41c-.25.56-.79.89-1.38.89zM1808.06 609.22c-.15 0-.31-.02-.46-.07-.79-.25-1.23-1.1-.97-1.89 7.2-22.41 28.72-60.99 46.73-79.06.59-.59 1.54-.59 2.13 0 .59.59.59 1.54 0 2.13-17.72 17.78-38.9 55.77-46 77.86-.21.64-.8 1.04-1.43 1.04zM2096.34 543.97c-.35 0-.7-.12-.99-.37-33.07-28.91-72.42-58.88-120.95-48.35-.81.17-1.61-.34-1.79-1.15-.18-.81.34-1.61 1.15-1.79 49.89-10.82 89.94 19.63 123.56 49.03.62.55.69 1.5.14 2.12-.3.34-.71.51-1.13.51zM2151.02 644.71c-.49 0-.97-.24-1.26-.68-3.26-5-6.47-10.1-9.86-15.5-19.97-31.76-42.6-67.75-77.33-81.89-.77-.31-1.14-1.19-.83-1.96.31-.77 1.19-1.14 1.96-.83 35.63 14.5 58.54 50.93 78.75 83.07 3.39 5.39 6.59 10.48 9.83 15.46.45.7.26 1.63-.44 2.08-.25.17-.54.24-.82.24zM2154.27 636.5c-.62 0-1.2-.39-1.42-1-2.44-6.9-4.73-14.35-7.16-22.24-6.29-20.44-13.43-43.6-24.45-59.74-.47-.69-.29-1.62.39-2.09.68-.47 1.62-.29 2.09.39 11.28 16.52 18.48 39.91 24.84 60.55 2.42 7.86 4.71 15.28 7.12 22.13.28.78-.13 1.64-.92 1.92-.17.06-.33.09-.5.09zM2087.33 988.4c-34.85 0-75.06-10.82-105.36-21.08-36.5-11.75-70.73-33.81-96.36-62.11-27.73-30.62-43.84-66.4-46.59-103.48-.06-.83.56-1.55 1.39-1.61.83-.06 1.55.56 1.61 1.39 5.26 70.94 63.2 137.95 140.9 162.95 36.95 12.52 88.69 25.87 126.89 19.12-4.95-8.27-42.73-22.48-63.56-30.31-8.64-3.25-15.46-5.81-18.53-7.32-.75-.37-1.05-1.27-.69-2.01.37-.75 1.27-1.05 2.01-.69 2.95 1.45 9.71 3.99 18.27 7.21 34.08 12.82 64.77 25.06 66 34.08.11.79-.42 1.53-1.2 1.68-7.77 1.51-16.1 2.18-24.76 2.18zM1817.31 924.9c-.58 0-1.14-.34-1.38-.91-12.03-28.2-19-76.41-8.21-110.24.2-.62.77-1.04 1.41-1.05 0 0 .01 0 .02 0 .64 0 1.21.4 1.42 1.01 1.46 4.18 2.88 10.31 4.39 16.81 1.97 8.46 4.2 18.05 6.76 24.09.32.77-.03 1.65-.8 1.97-.77.32-1.65-.03-1.97-.8-2.66-6.27-4.82-15.58-6.92-24.58-.98-4.21-1.92-8.26-2.85-11.69-8.5 32.76-1.74 76.92 9.51 103.29.33.76-.03 1.65-.79 1.97-.19.08-.39.12-.59.12z" class="color805a51 svgShape"/><path fill="#805a51" d="M1798.66 946.54c-.78 0-1.44-.61-1.5-1.4-.15-2.09-.33-4.28-.51-6.55-1.53-18.79-3.44-42.18 7.86-57.45.49-.67 1.44-.81 2.1-.31.67.49.81 1.44.31 2.1-10.63 14.36-8.77 37.13-7.28 55.42.19 2.28.37 4.48.51 6.58.06.83-.57 1.55-1.39 1.61-.04 0-.07 0-.11 0zM2222.01 969.05c-6.22 0-11.14-8.33-15.15-15.13-1.6-2.7-3.11-5.26-4.22-6.38-2.61-2.19-10.56-5.16-16.37-7.32-5.28-1.97-8.09-3.04-9.15-3.91-.39-.32-.59-.8-.55-1.3.05-.5.33-.94.77-1.18 1.65-.92 2.16-.94 3.65-.87.23 0 .49.02.8.03.83.02 1.48.71 1.46 1.54-.01.45-.22.85-.55 1.12 1.42.56 3.06 1.17 4.61 1.75 6.72 2.51 14.34 5.35 17.31 7.89.03.02.05.05.08.07 1.4 1.38 2.95 4 4.74 7.04 3.65 6.19 8.66 14.66 13.5 13.54.81-.18 1.62.32 1.8 1.13.19.81-.32 1.62-1.13 1.8-.55.13-1.08.19-1.61.19z" class="color805a51 svgShape"/><path fill="#805a51" d="m2228.23,973.57c-.12,0-.23-.01-.35-.04-3.25-.78-8.82-3.16-10.85-6.52-.02-.03-.04-.07-.06-.1-.31-.62-.16-1.4.37-1.85.96-.81,1.84-.17,2.86.58.4.29.61.75.62,1.21,2.05,1.79,5.54,3.23,7.76,3.76.81.19,1.31,1,1.11,1.81-.16.69-.78,1.15-1.46,1.15Z" class="color805a51 svgShape"/><path fill="#805a51" d="M2233.51 983.25c-1.49 0-3.49-1.52-9.03-6.29-2.17-1.87-4.88-4.2-5.73-4.55-.66-.27-1.04-.98-.9-1.68.14-.7.76-1.21 1.48-1.21h1.04c.78 0 1.42.6 1.5 1.36 1.16.88 2.66 2.16 4.57 3.81 2.17 1.86 5.7 4.9 6.98 5.49.44-.12.94-.04 1.32.25.66.51.78 1.45.28 2.11-.31.4-.76.65-1.28.71-.07 0-.15.01-.22.01zM1962.4 1082c-42.91 0-83.34-5.09-117.76-26.11-2.98-2.06-6.03-4.08-9.26-6.22-19.41-12.88-41.41-27.47-46.64-49.29-.19-.81.3-1.62 1.11-1.81.81-.2 1.62.3 1.81 1.11 4.95 20.66 26.43 34.91 45.38 47.48 3.24 2.15 6.3 4.18 9.23 6.21 45.09 27.54 101.2 27.23 159.53 24.33 12.95-1.25 26.38-2.7 39.36-4.1 73.96-7.98 150.43-16.23 222.87 1.52.81.2 1.3 1.01 1.1 1.82-.2.81-1.01 1.3-1.82 1.1-71.93-17.62-148.13-9.4-221.83-1.45-12.99 1.4-26.42 2.85-39.46 4.11-14.73.73-29.32 1.3-43.64 1.3z" class="color805a51 svgShape"/><path fill="#332b36" d="M1861.63 675.11c18.04-16.61 51.99-14.94 74.07-8.32-12.1 3.72-42.32 6.06-55.84 9.61-7.21.72-19.92 5.37-18.24-1.3zM2051.26 661.92c-6.54-.33-18.15-.78-21.84-1.35 10.28-4.58 21.06-10.55 32.23-11.16 13.48-.88 40.93.77 50.46 11.82 1.48 10.7-45.04.18-60.85.69z" class="color332b36 svgShape"/><path fill="#542a20" d="M1915.65 742.57c-11.82.68-17.54-18.24-8.87-26.03 14.5-9.69 26 23.85 8.87 26.03zM2054.29 736.35c-11.63-3.98-10.08-32.55 4.46-27.24 6.65 4.81 9.98 23.9-.66 26.28-.55.72-2.4 1.21-3.8.96z" class="color542a20 svgShape"/><path fill="#d78972" d="M1994.43 794.05c-10.29 0-23.7-2.53-31.37-7.25-2.32-1.41-3.61-3.13-3.83-5.11-.48-4.35 4.25-8.9 10.23-14.67 7.42-7.14 16.65-16.03 19.06-27.31.18-.86 1.03-1.41 1.89-1.23.86.18 1.41 1.03 1.23 1.89-2.62 12.24-12.24 21.5-19.97 28.95-4.93 4.75-9.58 9.23-9.27 12.02.04.35.16 1.43 2.32 2.74 7.67 4.72 23.98 7.76 34.92 6.51.87-.1 1.66.53 1.76 1.4.1.88-.53 1.67-1.4 1.76-1.7.19-3.58.29-5.57.29zM1986.29 841.71c-13 0-25.71-2.66-34.57-7.76-.63-.36-.93-1.1-.74-1.79.19-.7.82-1.18 1.54-1.18h.7c.66 0 1.22.4 1.46.96 20.51 10.75 59.86 8.95 75.32-8.09.59-.65 1.6-.7 2.25-.11.65.59.7 1.6.11 2.25-9.68 10.67-28.15 15.72-46.07 15.72z" class="colord78972 svgShape"/><path fill="#2e2f35" d="m2224.75,478.9c-73.11-22.4-146.21-44.81-219.33-67.17-97.52,30-196.62,57.91-292.32,86.33l.11.25c-.26.28-.17.83-.18,1.18,106.47,21.33,217.63,43.63,323.77,64.88l.68-1.25c5.49-1.51,239.35-64.81,245.33-66.44l-58.07-17.79Z" class="color2e2f35 svgShape"/><path fill="#3f4149" d="m2042.88,559.91c-2.44.64-4.87,1.39-7.32,1.95-.2.25-.13.24-.52.45-79.42-15.9-158.84-31.83-238.26-47.75.41,33.3-2.18,58.18,1.45,88.26l-.74.56c5.24,4.2,9.58,6.36,15.96,9.22,21.09,9.83,43.73,17.39,66.38,22.19,54.55,13.02,112.32,17.05,168.08,12.22,26.56-2.88,53.59-9.76,79.55-15.79,15.87-4.26,32.6-8.77,45.74-18.89.46-11.37,1.8-23.57,1.02-35.3-1.83-18.17-1.06-35.06,1.18-53l-132.51,35.87Z" class="color3f4149 svgShape"/><path fill="#ffca5f" d="m2333.6,873.25c-1.2-26.45-3.01-40.55-2.81-69.5-.13-28.09.55-91.67-35.55-91.21-1.7-37.69-1.05-84.18-2.25-122.18-.49-21.48,4.39-45.98-4.94-66.11-1.4-2.12-2.3-4.47-4.98-5.1-1.06-.71-1.76-1.99-2.81-2.76l-.68.84.44-1.05-.71.81s0,0,0,0l.48-1.03c-27.67-21.84-71.23-16.57-104.42-19.62-30.3-2.44-61.87-4.89-92.37-6.27-11.28-.36-26.46.57-37.94-2.82.82-9.83-11.84-15.38-19.7-18.13-18.91-8.56-63.44,21.36-24.82,27.89,10.08,2.08,21.04,2.69,30.95.25,5.72,2.61,12.1,5.11,18.21,6.41,20.63,3.56,41.4,6.05,62.61,5.83,21,1.41,44.79,3.59,66.2,4.43,31.38,2.23,67.39-.98,99.02,5.8v.25s1.08.13,1.08.13l-1.18.23c-2.03,16.83.13,33.72.61,49.07,1.68,50.73,5.24,94.12,5.68,146.21-18.17,11.08-11.71,35.2-14.92,53.77-2.91,56.61-10.14,118.28-8.54,174.31l.94-.55s0,0,0,0l-.42.51h-.31v1.08c5.66.08,9.49-.48,15.1-.62,15.72,1.92,13.4-2.4,15.07-15.76,1.14,4.63-.73,15.47,3.93,17.51,1.52.62,8.76.23,10.47.33,11.47.08,14.18,1.15,14.43-9.07.34,1.95.7,3.94,1.2,5.72.28,2.17,2.1,3.48,4.25,3.35,4.18.47,7.09-1.81,7.01-6.34,1.41-21.23,2.03-45.33,1.65-66.61Z" class="colorffca5f svgShape"/><path fill="#f7a991" d="m1791.04,988.63c-2.79,18.6-6.05,35.92-5.37,54.13-.04,10.42,1.89,29.63-3.32,38.23.02-7.13-1.55-15.22-3.09-22.17-1.47-7.77-2.36-9.67-7.46-15.64-.15-.1-.48-.3-.64-.38l-.31.31c-2.71-1.65-4.11-2.24-7.09-1.89-2.51.29-5.25.58-7.36,2.05-8.75,5.26-6.86,17.23-6.4,25.94l.43.23c-6.91,11.59-1.22,27.1,4.79,38v.02c.45,1.87.52,4.44.77,6.44-2.93-5.05-4.51-10.74-7.46-15.6-2.37-2.75-4.72-5.84-6.07-9.25l.16-.1c-3.33-4.7-10.72-3.85-15.5-2.07-4.69,2.11-7.41,7.15-8.49,12.03-2.21,9.21-.81,17.65-2.35,27.21-.97,8.57-2.89,18.87-3.95,27.32-.73,7.23-3.34,14.59-4.97,21.67-1.28,6.89-.31,14.91-.08,21.95.27,5.58.7,11.43,2.52,16.77,1.89,5.48,4.92,10.91,4.86,16.83.48,6.18-2.93,14.36,3.66,18.25h.02c1,.84,1.98,1.52,2.79,2.56,4.85,6.12,13.3,5.38,20.2,4.12,10.69-2.38,21.87-3.47,31.45,3.05,3.62,2.02,5.98,3.26,9.63,4.43,31.64,8.54,39.5-45.07,43.26-66.68l-.08-.02c.09-.51.15-.84.17-1.05h0c.06-.77.44-2.12.4-2.85,2.77-12.4,3.82-26.37,6.63-38.71,4.48-15.04,8.73-27.6,12.01-43.37l.16.04c.04.14.53,1.71.53,1.71.35-.74.97-1.31.91-2.22,1.4-9.76,4.82-19.89,8.24-29.08,8.79-22.03,21.17-43.43,31.63-64.77,5.14-7.97,5.38-15.82,7.51-24.91,1.02-7.89,5.5-16.67-.07-23.26-2.34-2.48-5.78-2.89-8.83-1.34-13.1,6.81-14.81,24.28-18.98,37-5.59,16.59-17,32.82-26.18,47.88-6.65,9.23-14.76,27.36-27.49,25.76-9.88-15.61,5.28-69.57,6.22-90.62.4-6.98.19-16.17.53-23.16-.16-6.71.21-13.81-2.8-19.93-2.85-6.81-11.28-6.84-14.65-.49-8.21,13.46-8.46,30.43-10.5,45.65Zm-30.44,135.46c-1.06-1.01-1.79-2.4-2.29-3.77,1.09,1.86,1.41,2.42,2.29,3.77Z" class="colorf7a991 svgShape"/><g><path fill="#d78972" d="m1817.75,1167.23s-.05,0-.07,0c-.59-.04-1.03-.55-.99-1.13,1.04-15.27.69-15.89-5.15-26.25-.83-1.48-1.78-3.15-2.84-5.09-2.16-3.62-4.19-7.27-6.15-10.8-1.65-2.98-3.36-6.07-5.13-9.08-5.42-5.33-11.21-12.26-18.22-21.8-1.61-2.44-3.38-4.88-5.09-7.24-2.52-3.47-5.12-7.06-7.26-10.7-.77-1.29-1.51-2.7-2.3-4.19-1.45-2.77-2.96-5.63-4.71-7.75-2.33-1.91-3.67-.99-4.12-.69-2.93,2-4.36,9.23-3.16,12.81.19.56-.11,1.16-.67,1.35-.56.19-1.16-.11-1.35-.67-1.46-4.36.24-12.69,3.98-15.25,1.17-.8,3.61-1.75,6.75.87.05.04.09.08.13.13,1.92,2.29,3.5,5.29,5.02,8.2.77,1.46,1.5,2.85,2.24,4.1,2.09,3.56,4.66,7.1,7.15,10.53,1.72,2.38,3.5,4.83,5.11,7.27,6.95,9.46,12.7,16.34,18.06,21.6.07.07.12.14.17.22,1.81,3.08,3.55,6.22,5.23,9.25,1.95,3.52,3.97,7.16,6.13,10.78,1.08,1.96,2.02,3.63,2.85,5.1,6.04,10.72,6.47,11.9,5.41,27.44-.04.56-.51.99-1.06.99Z" class="colord78972 svgShape"/><path fill="#d78972" d="M1769.84 1191.14c-.48 0-.92-.33-1.03-.82-2.9-12.49-2.22-23.27 2.1-32.95l.6-1.42c2.23-5.29 4.54-10.76 4.78-16.53 0-.06 0-.11.02-.17 1.2-5.81-3.39-9.91-8.24-14.25-3-2.68-6.11-5.46-7.9-8.76-14.58-21.55-17.35-38.71-8.02-49.63.38-.45 1.05-.5 1.5-.12.45.38.5 1.05.12 1.5-10.92 12.8-1.57 32.68 8.2 47.1.02.03.04.06.06.09 1.61 2.99 4.59 5.66 7.47 8.23 5.07 4.53 10.31 9.22 8.93 16.18-.28 6.12-2.65 11.74-4.94 17.18l-.6 1.43c-4.13 9.26-4.77 19.6-1.98 31.62.13.57-.22 1.14-.79 1.28-.08.02-.16.03-.24.03zM1767.51 1094.1c-.36 0-.71-.18-.91-.51-.31-.5-.15-1.16.35-1.46 1.99-1.22 4.07-2.57 5.66-4.59.34-.44.97-.53 1.43-.22.46.31.6.93.33 1.41l-.54.95c-.16.28-.43.46-.73.52-1.56 1.57-3.33 2.71-5.04 3.76-.17.11-.36.16-.55.16z" class="colord78972 svgShape"/><path fill="#d78972" d="m1765.14,1093.55c-.25,0-.5-.09-.7-.27-7.57-6.69-14.41-14.3-13.12-24.62.07-.58.61-1,1.19-.92.58.07,1,.6.92,1.19-1.16,9.35,5.28,16.47,12.42,22.77.44.39.48,1.06.09,1.5-.21.24-.5.36-.8.36Z" class="colord78972 svgShape"/><path fill="#d78972" d="m1788.44,1264.4c-1.18,0-2.4-.09-3.66-.27-.04,0-.08-.01-.11-.02-4.14-1.05-8.03-2.98-11.79-4.84-6.72-3.32-13.07-6.46-20.65-4.98-.04,0-.08.01-.12.02-2.42.18-5.02.68-7.77,1.22-8.34,1.61-17.8,3.44-23.96-4.17-.63-.79-1.48-1.43-2.14-1.9-5.21-3.03-4.71-8.54-4.26-13.39.17-1.89.34-3.67.21-5.32.04-4.3-1.49-8.14-3.12-12.21-.91-2.3-1.86-4.67-2.49-7.11-2.33-12.52-2.92-25.05-1.7-36.3,0-.07.02-.13.04-.19,3.57-11.81,5.41-24.33,7.18-36.44.31-2.12.62-4.24.94-6.35,0-.04.01-.08.03-.12,1.23-4.51,1.32-9.96,1.41-15.74.19-11.83.39-24.07,10.54-29.85.06-.03.12-.06.18-.08,2.65-.91,11.63-3.44,15.81,2.32.16.23.23.5.2.75.23.42.36.7.4.96.58,1.68,1.88,3.32,3.27,5.05,1.39,1.74,2.83,3.55,3.68,5.59,2.6,7.53,6.94,14.5,11.14,21.25,3.2,5.14,6.51,10.45,9.01,15.95,1.66,4.35,3.56,12.86.31,17.5-1.44,2.06-3.66,3.08-6.63,3.03-4.66.25-9.22-1.76-12.46-5.53-5.38-5.65-8.17-12.85-10.87-19.82-2.51-6.47-5.11-13.16-9.79-18.46-.55-.42-1-.9-1.45-1.36-1.04-1.07-1.73-1.73-2.9-1.74-.59,0-1.06-.48-1.05-1.07,0-.59.49-1.06,1.07-1.05,2.11.02,3.33,1.28,4.41,2.39.43.44.84.86,1.29,1.2.06.04.11.09.15.14,4.98,5.59,7.66,12.5,10.25,19.18,2.75,7.09,5.34,13.78,10.47,19.16,2.84,3.3,6.77,5.04,10.84,4.83,2.29.02,3.9-.66,4.93-2.13,2.55-3.63,1.08-11.23-.53-15.46-2.42-5.31-5.69-10.56-8.85-15.64-4.26-6.85-8.67-13.92-11.32-21.61-.71-1.71-2.05-3.39-3.35-5.02-1.48-1.86-3.01-3.78-3.68-5.88-.01-.04-.02-.08-.03-.12-.06-.13-.17-.33-.28-.53-.16-.3-.33-.61-.42-.9-3.49-3.73-10.52-1.78-12.82-1-9.01,5.2-9.2,16.78-9.38,27.99-.09,5.89-.18,11.46-1.47,16.21-.32,2.09-.62,4.18-.93,6.28-1.78,12.15-3.62,24.72-7.22,36.65-1.18,11.03-.6,23.3,1.67,35.52.58,2.24,1.5,4.55,2.39,6.78,1.63,4.08,3.31,8.3,3.26,12.93.14,1.74-.04,3.7-.21,5.59-.43,4.63-.83,9.01,3.29,11.41.86.6,1.85,1.36,2.65,2.35,5.36,6.61,13.77,4.99,21.9,3.42,2.79-.54,5.42-1.05,7.95-1.24,8.26-1.59,15.21,1.85,21.94,5.17,3.65,1.8,7.42,3.67,11.32,4.67,26.42,3.67,33.91-38.09,37.94-60.54.27-1.5.52-2.92.77-4.25-.02-.33.05-.71.11-1.06,1.63-9.23,3.95-22.82,5.7-35.24,1.99-9.21,4.56-17.89,7.05-26.29,2.97-10.03,6.04-20.41,8.1-31.58.11-.58.66-.96,1.24-.85.58.11.96.66.85,1.24-2.08,11.28-5.17,21.71-8.15,31.8-2.48,8.36-5.04,17-6.99,26.06-1.67,11.85-3.87,24.86-5.49,34.05.04.15.05.31.02.47-.05.26-.09.51-.14.73-.31,1.62-.62,3.4-.97,5.3-3.97,22.15-11.2,62.53-36.72,62.53Zm-46.8-174.45h0c.1-.15.23-.27.4-.36-.18.09-.31.22-.4.36Zm.4-.36s0,0,0,0c0,0,0,0,0,0Z" class="colord78972 svgShape"/><path fill="#d78972" d="m1845.66,1111.74c-.46,0-.88-.3-1.02-.75l-.22-.75c-.14-.45.05-.92.41-1.18,3.74-23.38,14.89-44.65,25.68-65.24,6.98-13.32,14.2-27.09,19.23-41.16.54-3.26,1.3-6.6,2.04-9.82,1.47-6.43,2.99-13.07,2.84-19.48-.18-2.53-1.58-4.52-3.83-5.43-2.61-1.05-5.72-.43-7.93,1.58-5.84,4.67-8.84,12.54-11.41,20.21-4.14,20.35-15.01,38.51-24.88,53.94-1.99,2.66-4.07,6.14-6.28,9.83-6.82,11.37-15.24,25.42-26.64,25.42-.44,0-.87-.02-1.32-.06-.58-.06-1.01-.57-.96-1.16.06-.58.58-1,1.16-.96,10.74,1.01,19.16-13.04,25.93-24.33,2.24-3.73,4.35-7.25,6.36-9.94,9.73-15.22,20.5-33.2,24.56-53.22,0-.04.02-.09.03-.13,2.68-7.99,5.81-16.22,12.07-21.21,2.76-2.5,6.75-3.28,10.1-1.93,3.04,1.22,4.92,3.88,5.16,7.3.16,6.73-1.39,13.5-2.89,20.05-.74,3.23-1.5,6.56-2.03,9.79-.01.06-.03.12-.05.19-5.08,14.24-12.35,28.11-19.38,41.52-10.93,20.86-22.24,42.42-25.68,66.02-.07.49-.48.87-.97.91-.03,0-.05,0-.08,0Z" class="colord78972 svgShape"/><path fill="#d78972" d="m1823.42,1084.73c-.18,0-.36-.05-.53-.14l-.46-.26c-.22-.13-.38-.32-.46-.54-1.21-1.06-2.26-1.77-4.38-2.88-.52-.27-.72-.91-.45-1.44.27-.52.91-.72,1.44-.45,2.79,1.46,3.93,2.34,5.57,3.87.39.37.45.98.13,1.41-.21.28-.53.43-.85.43Z" class="colord78972 svgShape"/><path fill="#d78972" d="m1780.33,1083.63c-.45,0-.87-.29-1.01-.74-.18-.56.13-1.16.69-1.33,6.35-2.01,5.68-20.68,5.27-31.84-.13-3.66-.25-6.82-.13-8.85-.12-12.41.76-23.04,3.02-36.62,1.49-7.09,2.24-14.28,2.96-21.24,1.37-13.2,2.78-26.85,9.38-39.27,1.25-3,4.21-5.34,7.39-5.84,2.69-.42,5.13.48,6.87,2.54,3.94,4.95,4.26,10.95,4.58,16.75,0,.02,0,.11,0,.13,0,1.94,0,3.84,0,5.72.03,11.6.06,22.56-1.81,34.8-.14,3.14-1.22,9.31-2.58,17.11-3.52,20.1-9.4,53.75-2.43,61.49,1.01,1.12,2.24,1.6,3.78,1.5.59-.05,1.09.4,1.13.99.04.59-.4,1.09-.99,1.13-2.2.16-4.06-.59-5.51-2.2-7.67-8.51-1.9-41.47,1.91-63.28,1.36-7.77,2.43-13.9,2.55-16.89,0-.04,0-.08.01-.12,1.85-12.1,1.82-23,1.79-34.53,0-1.89,0-3.79,0-5.73-.31-5.74-.61-11.14-4.1-15.54-1.22-1.45-2.96-2.09-4.89-1.79-2.48.39-4.8,2.24-5.77,4.6-.01.03-.03.06-.05.1-6.43,12.06-7.76,24.92-9.17,38.53-.73,7.01-1.48,14.26-2.98,21.41-2.23,13.41-3.1,23.93-2.98,36.28-.12,2.01,0,5.12.13,8.72.48,13.27,1.14,31.44-6.75,33.94-.11.03-.21.05-.32.05Z" class="colord78972 svgShape"/><path fill="#d78972" d="m1777.65,1089.39c-.5,0-.95-.35-1.04-.86-.11-.58.27-1.13.84-1.24.86-.16,1.54-.63,2.05-1.43,3.16-4.87-.31-19.7-2.18-27.66-.56-2.4-1.01-4.32-1.22-5.6-1.28-3.45-3.95-6.97-6.98-9.21-.47-.35-.57-1.01-.22-1.49.35-.47,1.02-.57,1.49-.22,3.38,2.5,6.35,6.44,7.75,10.29.02.06.04.13.05.2.19,1.21.66,3.22,1.21,5.55,2.21,9.43,5.55,23.68,1.89,29.31-.84,1.29-2,2.09-3.44,2.36-.07.01-.13.02-.2.02Z" class="colord78972 svgShape"/><path fill="#d78972" d="M1750.54 1069.91c-.56 0-1.04-.44-1.06-1.01-.05-1-.11-2.04-.18-3.11-.52-8-1.16-17.96 6.73-22.86 4.29-2.39 10.58-3.61 15.54.06.47.35.57 1.02.22 1.49s-1.01.57-1.49.22c-4.15-3.07-9.54-1.98-13.2.06-6.77 4.21-6.2 13.07-5.69 20.89.07 1.08.14 2.14.18 3.15.03.59-.43 1.08-1.01 1.11-.02 0-.03 0-.05 0zM1764.78 1127.65c-1.2 0-2.37-.35-3.37-1.01-5.46-3.34-5.84-9.67-6.17-15.25-.13-2.12-.24-4.12-.6-5.97-.11-.58.26-1.13.84-1.25.58-.12 1.13.26 1.25.84.39 1.98.51 4.15.64 6.25.33 5.55.64 10.8 5.19 13.58.97.65 2.16.84 3.27.54 1.05-.27 1.92-.95 2.38-1.86.27-.52.91-.73 1.43-.46.52.27.73.91.46 1.43-.74 1.45-2.1 2.52-3.74 2.95-.52.14-1.05.2-1.58.2zM1725.77 1147.56c-.29 0-.58-.12-.79-.35-.39-.44-.36-1.11.08-1.5 5.19-4.68 11.93-7.68 18.25-8.17.35-.41.96-.49 1.41-.17l.42.3c.37.27.54.74.4 1.18-.13.44-.53.74-.99.75-6.17.17-12.93 3.04-18.08 7.68-.2.18-.46.27-.71.27zM1764.09 1153.39c-.16 0-.31 0-.47-.03-6.76-.47-11.34-11.13-12.63-17.74-.45-1.82 1.41-2.3 2.11-2.48.23-.06.57-.15.67-.22.07-.05.16-.1.24-.13.49-.18.96-.39 1.43-.6 1.13-.5 2.3-1.02 3.65-1.21.58-.08 1.12.32 1.2.9.08.58-.32 1.12-.9 1.2-1.06.15-2.05.59-3.09 1.05-.47.21-.95.42-1.44.61-.39.23-.84.35-1.24.45-.15.04-.37.1-.53.15 1.29 6.32 5.5 15.53 10.71 15.89.7.08 1.39-.18 1.86-.67.24-.25.62-.77.5-1.52-.09-.58.31-1.12.89-1.21.58-.09 1.12.31 1.21.89.19 1.21-.2 2.42-1.07 3.32-.82.86-1.96 1.34-3.12 1.34z" class="colord78972 svgShape"/><path fill="#d78972" d="M1767.45 1146.19c-.57 0-1.04-.45-1.06-1.02-.13-3.5-2.22-7.8-6.2-12.78-.37-.46-.29-1.13.17-1.49.46-.37 1.13-.29 1.49.17 4.27 5.34 6.51 10.06 6.66 14.02.02.59-.44 1.08-1.02 1.1-.01 0-.03 0-.04 0zM1805.15 1226.2c-.3 0-.6-.13-.81-.38-.38-.45-.32-1.12.13-1.5 13.7-11.57 13.22-26.88 12.72-43.08-.17-5.35-.34-10.86.04-16.23-.23-.34-.26-.79-.03-1.17l.28-.45c.26-.42.77-.61 1.24-.45.47.15.77.61.73 1.1-.49 5.6-.3 11.46-.13 17.13.5 15.99 1.02 32.53-13.47 44.77-.2.17-.44.25-.69.25zM1759.09 1237.34c-.43 0-.84-.27-1-.7-4.34-11.88-2.44-25.22-.08-34.32 1.13-4.26 3.34-8.46 5.48-12.52 1.49-2.84 3.04-5.77 4.17-8.65.21-.55.83-.82 1.38-.6.55.21.82.83.6 1.38-1.17 2.99-2.75 5.98-4.27 8.86-2.09 3.96-4.24 8.05-5.3 12.07-2.28 8.8-4.13 21.69.02 33.05.2.55-.08 1.16-.63 1.36-.12.04-.24.06-.36.06z" class="colord78972 svgShape"/></g><g><path fill="#2e2f35" d="m1650.08,1485.92c-4.14-34.69-15.38-73.41-26.56-102.07-11.18-28.66-19.47-43.25-41.79-58.74-4.4-3.05-4.64,2.69-5.12,7.13-.48,4.44.83,10.82,2.35,17.09,14.02,57.72,33.31,87.02,49.25,151.14,11.98,48.19,16.52,60.61,16.01,142.47-.22,35.94-26.53,175.33-30.95,230.54-.68,8.56,1.53,6.39,1.39,5.94,22.21-82.93,39.72-169.45,43.19-254.88,1.94-47.93-2.32-92.94-7.78-138.62Z" class="color2e2f35 svgShape"/><path fill="#3f4149" d="m1579.53,1323.43c-.22-.56-.73-1.16-1.01-1.3-1.02-.53-1.94-.77-2.84-.15-22.28-.57-40.22,5-63.23,4.86-26.85-.17-55.25-5.59-81.72,5.37-50.17,39.85-55.08,111.26-39.5,169.41-.05.19.03.4-.06.58-.09.18-.93-.06-.91.16.27,2.56-.28,2.5,1.5,5.03,6.82,9.7,17.01,17.01,26.26,24.7,24.9,20.5,40.65,48.58,65.95,68.65,72.78,93.37,97.24,178.29,126.36,290.64.74.57,1.39-2.34,1.41.98,4.86-24.77,1.06-5.81,7.85-44.56,2.37-13.53,21.78-104.16,23.94-144.6.7-13.06,4.46-65.73,2.67-92.59-6.42-96.69-30.81-195.62-66.67-287.19Z" class="color3f4149 svgShape"/><path fill="#f7a991" d="m1789.68,1222.62c-27.93-18.29-67.64,5.46-89.45,16.93-44.86,23.59-90.56,49.43-125.21,80.23,17.48,43.31,34.81,86.42,48.99,130.87,1.01-.16,1.9-.65,2.96-.44.15.03.21.48.29.51,31.46-21.17,51.61-55.86,76.77-82.76,20.01-21.4,40.38-37.94,62.01-56.8.06-.32-.05-.32.25-1.02,14.4-12.55,28.45-36.37,32.85-52.69,4.4-16.33,2.02-27.3-9.47-34.82Z" class="colorf7a991 svgShape"/></g><g><path fill="#2e2f35" d="m2344.96,1543.13c4.14-34.69,15.38-73.41,26.56-102.07,11.18-28.66,19.47-43.25,41.79-58.74,4.4-3.05,4.64,2.69,5.12,7.13.48,4.44-.83,10.82-2.35,17.09-14.02,57.72-33.31,87.02-49.25,151.14-11.98,48.19-16.52,60.61-16.01,142.47.22,35.94,26.53,175.33,30.95,230.54.68,8.56-1.53,6.39-1.39,5.94-22.21-82.93-39.72-169.45-43.19-254.88-1.94-47.93,2.32-92.94,7.78-138.62Z" class="color2e2f35 svgShape"/><path fill="#3f4149" d="m2415.51,1380.64c.22-.56.73-1.16,1.01-1.3,1.02-.53,1.94-.77,2.84-.15,22.28-.57,40.22,5,63.23,4.86,26.85-.17,55.25-5.59,81.72,5.37,50.17,39.85,55.08,111.26,39.5,169.41.05.19-.03.4.06.58.09.18.93-.06.91.16-.27,2.56.28,2.5-1.5,5.03-6.82,9.7-17.01,17.01-26.26,24.7-24.9,20.5-40.65,48.58-65.95,68.66-72.78,93.37-97.24,178.29-126.36,290.64-.74.57-1.39-2.34-1.41.98-4.86-24.77-1.06-5.81-7.85-44.56-2.37-13.53-21.78-104.16-23.94-144.6-.7-13.06-4.46-65.73-2.67-92.59,6.42-96.69,30.81-195.62,66.67-287.19Z" class="color3f4149 svgShape"/><path fill="#f7a991" d="m2263.61,1371.47c16.55-20.61,44.1-19.32,62.62-18.22,38.08,2.26,60.68,6.99,92.57,22.76-14.44,44.58-28.98,89.15-47.96,131.94-.89-.07-1.69-.32-2.6-.08-.13.03-.23.42-.27.45-18.19-12.43-25.98-31.63-42.68-45.19-13.28-10.78-30.49-17.29-45.47-25.48-.06-.17-.1-.42-.05-.66-11.36-6.58-13.11-17.95-18.06-29.42-4.95-11.46-4.92-27.64,1.89-36.11Z" class="colorf7a991 svgShape"/></g><g><path fill="#f8eee2" d="M2280.1 1350.76c-3.55-5.81-4.54-12.67-7.28-18.7-13.94-14.65-39.88-13.73-50.91-31.9l-1.44.55c-12.72 25.81-25.9 51.78-38.41 77.65.16.08 1.18.5 1.21.6 11.05 20.59 41.39 35.9 64.08 37.38 11.05-19.73 21.28-45.57 33.72-63.86-.34-.57-.63-1.08-.96-1.73zM2306.88 1305.59c-1.27-4.01-1.87-3.86-5.77-3.92-3.07-.25-7.42-.29-10.34-.48-8.03-.17-16.17-1.64-24.14-2.77-5.23-.8-9.88-2.3-13.86-5.61l-.66 1.44-3.77-1.72c2.07 6.92 10.06 8.95 16.16 11.06 4.88 2.24 29.19 12.78 35.05 16.75 1.98-4.39 1.98-8.58 4.36-13.17l3.37-.51-.4-1.07zM2321.05 1273.14c-2.41-2.78-4.24-6.09-5.25-9.64-1.08-.15-2.15-.64-3.24-.54l.04-1.66c-16.78-.66-58.12 6.86-69.27-6.72-2.14 4.3-4.33 8.65-6.45 12.97 18.98.5 38.27 1.28 57.02 4.15 9.78 1.93 19.87 2.15 29.6 4.15-.53-.58-1.96-2.13-2.46-2.71zM2494.77 931.67l-2.32-1.16s-.47.17-.51.19c-14.11-18.93-39.11-35.54-63.3-35.95-2.54.43-5.85 1.03-7.98 2.53-1.02 1.15-153.87 310.44-154.72 311.7 1.82 8.56-6.25 17.01-14.16 19.06l.07 1.98c10.18-3.08 21.04-2.52 31.63-2.32 3.26.37 6.85-1.24 9.84.23l1.11-2.62c-15.91-5.4-20.58-18.76-4.98-28.39l-.16.38c2.14-1.22 4.36-1.06 6.44-.3 8.92 1.58 17.88 1.01 26.89 1.82 11.73.61 23.64-.28 35.19 2.65-.58-3.28 136.28-266.94 136.97-269.81z" class="colorf8eee2 svgShape"/><path fill="#f7a991" d="m2372.83,1303.83c3.3-8.17.48-16.72-3.52-24.19l1.39.61c.51-1.01,1.16-2.61.74-3.31,2.44-7.08,3.31-14.68,4.62-21.96.88-5.19,1.27-10.22,1.28-15.44l-.92-.11,1-.14c.63-3.76,2.42-7.38,2.92-11.23.74-9.76-1.77-21.49-11.76-25.64-17.03-6.34-35.48-4.59-53.29-5.87-6.8-.45-14.02-.02-20.72-1.75l-.22.9v-.96c-.48-.11-1.26-.33-1.77-.32l.39-.86c-4.59,1.38-8.8,4.01-11.6,7.97l-.03-.02c-.24.39-.74,1.16-.99,1.55h.01c-6.52,9.09.87,18.62,9.67,22.44-10.17.89-20.65-.62-30.75,1,6.5-4.7,11.72-14.1,7.08-21.72,0,0,0,0,0,.01-.68-1.27-1.01-1.68-2-3.15-.05-1.9-.69-4.16-1.68-5.69l-.78.51.62-.75c-7.38-9.2-24.37-6.82-31.53,1.66l-.13.02c-5.72,6.63-8.2,18.01-1.98,25.17-5.09,12.42-8.17,26.02-13.42,38.35-7.53,16.75-12.73,36.72-2.79,53.49l2.45,1.21,6.24-12.57c5.88,7.48,15.25,12.68,23.94,16.17,6.35,2.36,14.01,5.15,19.7,8.97,2.37,1.42,5.34,3.07,6.66,5.66,2.05,6.09,3.64,12.46,6.96,18.15-8.39,13.45-14.72,28.77-22.41,42.82l.92.47c1.55,5.21,2.67,10.38,8.23,10.69l.03-.93.22.94c7.9,3.44,16.98,5.57,25.38,3.14,6.57-1.49,13.92-4.47,17.57-10.57,1.63-2.95,3.5-6.92,3.83-10.08.17-2.78,2.15-5.36,4.3-7.01h0c3.04-1.59,6.81-2.64,8.96-5.51,3.86-4.7,4.79-11.88,7.06-17.49,1.37-2.52,3.25-5.78,5.31-7.98,5.48-4.77,13.7-7,15.46-14.96,1.12-3.31,1.05-7.03,2.42-10.2,1.39-4.35,5.22-7.48,8.61-10.26,3.53-2.97,6.8-6.79,8.3-11.24Zm-110.58-37.07c-6.64-.42-15.54-.9-22.43-.93,1.33-2.7,2.67-5.38,4.01-8.06,3.99,3.75,9.51,5.13,14.86,5.44,17.06,3.33,34.45.11,51.92-.07-.16,2.4,2.44,1.34,3.8,2,.85,2.92,2.38,5.56,4.23,7.95-18.64-1.98-37.61-5.76-56.38-6.32Zm39.98,39.61c-1.73,3.67-2.76,7.48-3.54,11.36-7.38-4.44-29.23-14.11-36.02-16.74-3.12-1.02-6.98-2.17-9.5-4.59l.35-.78c9.46,7.09,38.15,7.25,50.57,8.06.11.18.49,1.22.6,1.49l-2.07.31-.4.88Z" class="colorf7a991 svgShape"/></g><g><path fill="#d78972" d="M2246.79 1230.61c-2.06 0-4.17-.25-6.28-.78-8.27-2.05-13.99-7.64-15.3-14.95-.72-6.08 1.14-12.13 4.75-16.71.17-.52.48-.89.91-1.08 2.06-2.3 4.6-4.16 7.49-5.37 5.63-2.14 13.85-3 19.62-.15 3.12 1.54 5.19 3.97 6.16 7.22.32.82.63 1.82.56 2.7 5.15 6.66 4.66 15.2-1.39 21.69-3.77 4.78-9.87 7.43-16.52 7.43zm-14.85-31.14c-3.3 4.15-5.07 9.67-4.43 15.06 1.13 6.31 6.21 11.21 13.56 13.04 7.93 1.97 16.15-.39 20.44-5.87.02-.03.04-.05.07-.08 5.1-5.45 5.67-12.56 1.65-18.23-1.42.44-3.66-.36-6.94-1.54-6.2-2.22-15.51-5.57-24.34-2.38zm7.87-3.64c6.57 0 12.71 2.2 17.26 3.84 1.61.58 3.51 1.26 4.63 1.47-.01-.33.11-.67.38-.91.03-.03.06-.05.09-.07-.06-.18-.13-.39-.22-.62-.81-2.69-2.48-4.64-4.99-5.89-5.11-2.53-12.77-1.65-17.73.23-1.43.59-2.77 1.39-3.99 2.34 1.54-.27 3.07-.38 4.58-.38zM2367.99 1276.01c-.55 0-1.04-.39-1.14-.95-2.31-12.28-6.8-26.41-12.01-37.77-.04-.08-.06-.16-.08-.24-.49-2.28-2.03-3.45-4.86-3.69-.04 0-.08 0-.12-.02-.69-.13-1.41-.45-2.18-.78-.92-.4-2.07-.9-2.71-.8-.14.02-.27.02-.41 0-7.39-1.37-15.18-1.52-22.7-1.67-9.43-.19-19.19-.38-28.46-2.94-5.82-1.82-13-6.74-15.08-13.27-1.25-3.91-.47-7.85 2.23-11.4 3.16-4.88 9.12-9.62 15.18-9.07.64.06 1.11.62 1.05 1.26-.06.64-.61 1.1-1.26 1.05-5.11-.46-10.24 3.73-13.07 8.09-2.31 3.03-2.94 6.16-1.92 9.36 1.83 5.74 8.29 10.12 13.52 11.75 8.95 2.47 18.56 2.66 27.85 2.84 7.56.15 15.38.3 22.9 1.68 1.25-.12 2.6.46 3.8.99.6.26 1.21.53 1.64.62 4.7.43 6.32 3.13 6.84 5.39 5.26 11.51 9.79 25.78 12.13 38.2.12.63-.3 1.24-.93 1.36-.07.01-.14.02-.22.02z" class="colord78972 svgShape"/><path fill="#d78972" d="m2370.25,1280.2c-.08,0-.17,0-.26-.03-.63-.14-1.02-.76-.88-1.39l.83-3.67c2.55-11.15,5.18-22.69,5.23-34.17.1-2.7.9-5.24,1.67-7.69.88-2.81,1.72-5.46,1.57-8.24.37-22.18-16.78-23.7-34.93-25.3-1.2-.11-2.39-.21-3.58-.32-14.8.05-30.75-.72-47.5-2.31-.36-.03-.68-.23-.87-.53s-.23-.68-.11-1.02c.03-.08.06-.16.1-.24.24-.59.92-.88,1.52-.63.11.05.21.11.3.18,16.44,1.54,32.13,2.3,46.62,2.23.04,0,.08,0,.11,0,1.2.11,2.41.22,3.63.33,18.42,1.63,37.46,3.31,37.05,27.57.17,3.12-.76,6.1-1.67,8.99-.76,2.41-1.48,4.69-1.56,7.04-.05,11.71-2.71,23.37-5.29,34.64l-.83,3.66c-.12.54-.6.91-1.13.91Z" class="colord78972 svgShape"/><path fill="#d78972" d="m2293.53,1218.59c-3.75,0-7.41-1.32-10.14-3.76-.48-.43-.52-1.16-.09-1.64.43-.48,1.16-.52,1.64-.09,3.12,2.78,7.69,3.84,11.93,2.75,3.64-.93,6.39-3.32,7.57-6.55.49-2.85-.7-5.98-3.28-8.6-2.85-2.91-6.78-4.44-9.96-3.92-.42.07-.84-.1-1.1-.43-.26-.33-.32-.78-.16-1.17l.25-.58c.23-.51.78-.79,1.33-.66.22-.16.47-.25.76-.28.29-.38.8-.57,1.28-.42.56.18.89.71.81,1.27,2.98.48,6.02,2.09,8.45,4.57,3.14,3.2,4.55,7.11,3.89,10.74-.01.06-.03.12-.05.18-1.42,4.02-4.78,6.98-9.22,8.11-1.29.33-2.61.49-3.91.49Z" class="colord78972 svgShape"/><path fill="#d78972" d="M2285.03 1216.99c-.16 0-.33-.03-.48-.1-.48-.22-.82-.56-1-.97-3.11-3.71-3.79-8.19-1.96-13 .23-.6.9-.9 1.5-.67.6.23.9.9.67 1.5-1.43 3.77-1.11 7.04 1 9.96.13 0 .27.04.4.1.47.21.73.7.67 1.19.01.01.03.03.04.04.38.4.42 1.02.1 1.47-.22.31-.58.49-.95.49zM2274.54 1265.02c-9.72 0-19.33-1.11-28.29-5.18-6.15-3.25-9.53-8.99-9.11-15.39.46-7 5.29-13.2 12.28-15.78 11.29-3.79 23.58-3.48 35.47-3.18 2.51.06 4.9.12 7.27.15.41-.14.89-.1 1.36.11.5.23.77.77.65 1.31-.12.53-.59.91-1.13.91-.03 0-.06 0-.09 0-.33.36-.87.48-1.33.27-.15-.07-.29-.17-.39-.29-2.12-.03-4.29-.08-6.39-.14-11.69-.29-23.78-.6-34.64 3.05-6.1 2.25-10.33 7.65-10.74 13.74-.37 5.54 2.48 10.33 7.81 13.15 13.87 6.29 29.7 5.19 45.02 4.12 6.54-.46 13.3-.93 19.78-.81.64.01 1.15.54 1.14 1.18-.01.63-.53 1.14-1.16 1.14 0 0-.01 0-.02 0-6.38-.12-13.09.35-19.58.8-5.93.41-11.94.83-17.91.83z" class="colord78972 svgShape"/><path fill="#d78972" d="M2241.01 1254.74c-.16 0-.32-.03-.48-.1l-.65-.3c-.53-.24-.8-.83-.63-1.39.16-.56.72-.91 1.28-.82 1.94.29 3.89 0 5.97-.29 2.04-.29 4.14-.59 6.27-.34.85-.09 1.75.01 2.63.11 1.52.17 2.6.25 3.19-.23 2.01-7.01 2.14-12.1.37-15.13-.93-1.59-2.36-2.59-4.39-3.06-.62-.15-1.01-.77-.87-1.4.15-.62.77-1.01 1.4-.87 2.65.62 4.62 2.02 5.87 4.16 2.16 3.7 2.09 9.34-.22 17.24-.05.16-.13.31-.24.44-1.4 1.62-3.6 1.37-5.37 1.16-.83-.1-1.61-.18-2.21-.1-.11.02-.21.02-.32 0-1.87-.25-3.77.02-5.79.31-1.69.24-3.44.49-5.2.42-.18.11-.4.18-.62.18zM2231.03 1286.88c-4.88 0-9.02-3.74-10.72-7.9-2.02-4.91-.63-9.59 3.53-11.93 1.99-1.24 8.54-3.62 11.94-1.78 1.26.69 1.94 1.85 1.97 3.37.01.64-.5 1.17-1.14 1.18 0 0-.01 0-.02 0-.63 0-1.15-.51-1.16-1.14-.01-.68-.24-1.1-.75-1.38-2.11-1.15-7.6.46-9.65 1.73-3.77 2.12-3.79 6.06-2.56 9.05 1.62 3.95 5.86 7.47 10.54 6.19.62-.17 1.26.2 1.43.81.17.62-.2 1.26-.82 1.43-.87.24-1.74.35-2.58.35z" class="colord78972 svgShape"/><path fill="#d78972" d="M2238.3 1287.26c-.05 0-.1 0-.16 0-.06 0-.12 0-.18-.02-1.06-.2-1.96-.33-2.83-.45-2.31-.32-4.3-.6-7.46-2.18-.57-.28-.8-.97-.53-1.54.27-.57.95-.82 1.53-.56l.66.3c.07.03.13.06.18.1 2.34 1.07 3.88 1.29 5.93 1.57.83.12 1.77.25 2.85.45 1.41-.01 1.88-1.5 2.46-4.98.3-1.8.58-3.5 1.35-4.71.34-.54 1.06-.71 1.6-.36.54.34.71 1.06.36 1.6-.52.82-.77 2.36-1.02 3.85-.51 3.09-1.15 6.92-4.75 6.92zM2243.07 1271.15c-.16 0-.32-.03-.47-.1-1.86-.83-3.75-1.31-5.76-1.82-2.25-.57-4.57-1.16-6.84-2.29-.58-.28-.81-.98-.53-1.56.28-.57.98-.81 1.56-.53 2.05 1.02 4.15 1.55 6.38 2.12 2.01.51 4.09 1.04 6.13 1.95.59.26.85.95.59 1.53-.19.43-.62.69-1.06.69z" class="colord78972 svgShape"/><path fill="#d78972" d="m2338.33,1292.62c-.17,0-.34-.04-.5-.11-3.01-1.44-4.7-4.51-6.34-7.49-1.11-2.01-2.15-3.9-3.54-5.26-.06-.06-.11-.12-.16-.19-2.09-3.17-5.59-3.75-9.29-4.36-.77-.13-1.53-.25-2.29-.4-6.61-.71-13.25-1.58-19.66-2.43-13.67-1.8-27.8-3.66-42.11-3.97-.03,0-.07,0-.1,0-2.66-.29-5.71-.31-8.66-.34-2.08-.02-4.05-.03-5.89-.13-.57-.03-1.13-.08-1.7-.13-2.04-.18-3.99-.35-5.68.19-.23.25-.56.38-.9.37-.1.05-.2.11-.3.17-.43.26-.98.21-1.36-.12-.38-.33-.51-.87-.31-1.33.27-.63.7-.91,1.01-1.03.17-.07.4-.12.68-.11,2.26-.89,4.7-.67,7.06-.46.55.05,1.09.1,1.63.13,1.78.1,3.72.11,5.77.13,2.99.02,6.08.05,8.84.35,14.42.31,28.6,2.18,42.31,3.99,6.42.85,13.06,1.72,19.66,2.43.03,0,.07,0,.1.02.75.15,1.51.27,2.27.4,4,.66,8.13,1.35,10.79,5.27,1.58,1.59,2.74,3.69,3.85,5.71,1.53,2.78,2.97,5.4,5.31,6.51.58.28.83.97.55,1.55-.2.42-.62.66-1.05.66Z" class="colord78972 svgShape"/><path fill="#d78972" d="m2324.79,1278.98c-.22,0-.44-.06-.64-.19-5.79-3.8-8.69-9.95-10.58-14.88-.17-.44-.05-.94.29-1.26.34-.32.85-.41,1.28-.21l.66.3c.58.27.84.96.57,1.54-.03.06-.06.11-.09.16,1.77,4.33,4.42,9.3,9.15,12.4.54.35.69,1.07.33,1.61-.22.34-.59.52-.97.52Z" class="colord78972 svgShape"/><path fill="#d78972" d="m2315.7,1265.91c-.09,0-.18-.01-.27-.03-.54-.13-.92-.62-.89-1.18.06-1.35-1.35-2.29-4.19-2.8-.63-.11-1.05-.72-.94-1.35.11-.63.71-1.05,1.35-.94,3.69.66,5.26,2.07,5.83,3.5.5.3.71.94.46,1.48l-.29.63c-.19.42-.61.68-1.06.68Z" class="colord78972 svgShape"/><path fill="#d78972" d="M2327.66 1267.46s-.02 0-.04 0c-4.05-.12-7.99-.96-11.79-1.78-.96-.21-1.93-.41-2.89-.61-.68.05-1.74.07-2.31-.75-.21-.3-.49-.94-.04-1.88.27-.58.97-.83 1.55-.55.36.17.59.5.65.87.05 0 .09 0 .13 0 .11 0 .22 0 .33.02 1.03.21 2.05.43 3.08.65 3.7.79 7.53 1.61 11.38 1.73.64.02 1.15.55 1.13 1.2-.02.63-.54 1.13-1.16 1.13zM2283.22 1410.34c-5.11 0-10.32-1.03-15.18-3.17-.72-.27-1.22-.52-1.59-.71q-.64-.32-1.38-.13c-.24.06-.49.04-.72-.05-4.89-2.02-5.72-4.98-6.99-9.47-.16-.58-.34-1.19-.53-1.84-.18-.62.17-1.26.79-1.44.61-.18 1.26.17 1.44.79.2.66.37 1.28.54 1.87 1.19 4.24 1.75 6.24 5.3 7.81 1.16-.24 1.67-.06 2.59.39.34.17.77.38 1.44.64 12.99 5.72 28.52 3.07 37.02-6.26 2.8-3.75 4.03-8.92 5.11-13.49l.03-.11c.04-.15.1-.29.19-.42 4.03-5.53 6.81-6.62 9.05-7.5 3.14-1.23 5.42-2.12 10.43-19.5 2.37-6.38 6.98-9.56 11.44-12.64 5.25-3.63 9.78-6.76 10.24-14.47.39-2.97 1.35-6.04 2.63-8.49 1.64-3.28 4.39-5.58 7.06-7.8 1.85-1.54 3.59-3 5-4.76 9.33-10.34 3.66-22.38-1.82-34.03-.71-1.5-1.4-2.98-2.05-4.42-.19-.43-.1-.94.23-1.28.33-.34.84-.45 1.27-.27.68.28 1.1.79 1.21 1.41.49.5.73 1.17.85 1.52.09.26.08.54 0 .78.2.42.4.85.6 1.28 5.53 11.76 11.8 25.09 1.48 36.52-1.51 1.89-3.42 3.49-5.28 5.04-2.59 2.16-5.05 4.21-6.48 7.07-1.17 2.24-2.04 5.03-2.39 7.66-.52 8.76-5.96 12.52-11.23 16.16-4.16 2.88-8.46 5.85-10.55 11.46-5.06 17.54-7.65 19.31-11.79 20.93-2.03.79-4.33 1.69-7.88 6.51-1.13 4.78-2.42 10.17-5.52 14.27-.02.03-.04.05-.07.08-5.93 6.54-15.04 10.06-24.48 10.06zM2225.3 1303.61c-.17 0-.34-.04-.51-.12-4.36-2.13-8.8-8.38-7.99-13.26.28-1.68 1.48-4.6 6.36-5.21.07-.01.15-.01.22 0 10.56.73 14.59 2.56 23.42 6.59 1.89.86 4.02 1.83 6.49 2.92.59.26.85.94.6 1.53-.26.59-.94.85-1.53.6-2.48-1.09-4.62-2.06-6.52-2.93-8.79-4-12.45-5.67-22.5-6.38-2.51.34-3.94 1.44-4.25 3.27-.57 3.44 2.82 8.89 6.72 10.79.58.28.82.98.53 1.55-.2.41-.61.65-1.04.65z" class="colord78972 svgShape"/><path fill="#d78972" d="M2231.02 1303.18c-.59 0-1.23-.06-1.95-.21-.63-.13-1.04-.74-.91-1.37.13-.63.74-1.04 1.37-.91 2.6.53 4.19-.22 4.73-2.21.57-2.1-.34-4.33-.86-4.5-.55.33-1.25.15-1.58-.4-.33-.55-.13-1.26.42-1.58.95-.56 2.03-.42 2.88.38 1.56 1.47 2.29 5.27.9 7.95-.59 1.14-1.98 2.84-5 2.84zM2296.12 1371.82c-.2 0-.4-.05-.59-.16-13.6-8.02-19.65-23.78-24.22-37.99-6.2-6.46-14.95-10.01-23.42-13.44-10.68-4.33-21.72-8.81-28.28-19.15-.28-.43-.23-1 .1-1.38.34-.39.89-.51 1.36-.3l.59.27c.5.23.76.77.66 1.29 6.22 8.91 16.05 12.9 26.44 17.12 8.78 3.56 17.86 7.24 24.42 14.19.12.13.21.28.26.44 4.46 13.87 10.29 29.3 23.27 36.95.55.33.74 1.04.41 1.59-.22.37-.6.57-1 .57zM2321.48 1355.27c-.35 0-.69-.16-.92-.45-5.75-7.43-10.31-15.95-14.73-24.2-1.71-3.19-3.48-6.49-5.26-9.61-6.38-3.85-30.58-14.78-36.2-17.21-.71-.25-1.51-.52-2.34-.8-4.79-1.61-10.21-3.44-12.92-8.05-.33-.55-.14-1.27.41-1.59.55-.33 1.26-.14 1.59.41 2.27 3.86 7.26 5.54 11.66 7.02.84.28 1.66.56 2.45.84 5.8 2.5 30.74 13.78 36.82 17.55.16.1.3.24.4.41 1.85 3.22 3.67 6.63 5.44 9.93 4.37 8.16 8.89 16.6 14.52 23.87.39.51.3 1.24-.21 1.63-.21.16-.46.24-.71.24z" class="colord78972 svgShape"/><path fill="#d78972" d="m2322.78,1327.09c-1.18,0-2.43-1.39-4.65-3.99-.95-1.11-1.92-2.25-2.53-2.74-.05-.04-.1-.08-.14-.13-.52-.58-1.02-1.13-1.51-1.68-3.5-3.87-6.53-7.21-8.94-12.06-.26-.43-.42-.93-.57-1.42-.12-.38-.34-1.07-.51-1.2-.07,0-.18.02-.25.01-1.55-.14-3.93-.25-6.95-.39-21.26-1.01-44.04-2.77-45.18-11.06-.09-.64.36-1.22.99-1.31.63-.09,1.22.36,1.31.99.97,7.07,30.41,8.46,42.98,9.06,2.99.14,5.36.25,6.95.39,1.98-.11,2.54,1.78,2.86,2.81.11.35.23.74.35.93.02.03.04.07.06.11,2.27,4.58,5.07,7.67,8.61,11.58.48.52.96,1.06,1.46,1.62.77.64,1.74,1.78,2.77,2.98.75.87,1.89,2.21,2.61,2.85.22-.17.5-.25.8-.23.64.06,1.11.6,1.05,1.24-.1,1.13-.8,1.47-1.1,1.56-.16.05-.31.08-.47.08Z" class="colord78972 svgShape"/><path fill="#d78972" d="M2298.97 1320.53c-.15 0-.3-.03-.45-.09-.58-.24-.86-.9-.64-1.49.67-1.75 1.11-3.46 1.53-5.12.65-2.55 1.33-5.19 2.83-8.03.3-.57 1-.78 1.57-.48.57.3.78 1 .48 1.57-1.37 2.6-1.98 4.99-2.63 7.52-.41 1.61-.84 3.27-1.47 5.01-.02.08-.04.16-.08.24l-.08.18c-.19.43-.62.69-1.06.69zM2213.38 1314.88c-.4 0-.79-.2-1-.57-10.98-18.63-3.33-39.66 4.69-57.91 1.8-4.93 3.42-9.99 5-14.88 1.97-6.14 4.01-12.49 6.47-18.78.23-.6.9-.89 1.5-.66.6.23.89.91.66 1.5-2.43 6.22-4.46 12.54-6.42 18.64-1.58 4.92-3.21 10-5.05 15.04-7.82 17.79-15.27 38.18-4.85 55.87.33.55.14 1.27-.41 1.59-.18.11-.39.16-.59.16zM2265.66 1403.67s-.02 0-.03 0c-3.2-.07-5.46-2.11-7.45-3.91-.43-.39-.86-.78-1.3-1.15-.49-.41-.56-1.14-.15-1.64.41-.49 1.14-.56 1.64-.15.46.38.91.79 1.37 1.2 1.86 1.67 3.61 3.26 5.94 3.31.64.01 1.15.55 1.14 1.19-.01.63-.53 1.14-1.16 1.14zM2265.58 1215.08c-.6 0-1.11-.46-1.16-1.07-.02-.18-.21-.8-.35-1.26-.63-2.04-1.13-3.65-.12-4.47.23-.19.89-.58 1.87-.04.56.31.77 1.02.46 1.58-.12.21-.29.37-.48.47.13.57.37 1.33.5 1.77.26.86.42 1.36.45 1.75.05.64-.42 1.2-1.06 1.25-.03 0-.06 0-.1 0zM2275.57 1229.71c-.22 0-.45-.06-.65-.2-.38-.26-.71-.48-.99-.68-.53-.37-.66-1.09-.29-1.62.37-.53 1.09-.66 1.62-.29.27.19.59.41.96.66.53.36.67 1.08.31 1.61-.22.33-.59.51-.96.51zM2317.17 1274.9c-.43 0-.85-.24-1.05-.66-.28-.58-.03-1.27.54-1.55l1.6-.77c.58-.28 1.27-.03 1.55.55.28.58.03 1.27-.55 1.55l-1.6.77c-.16.08-.33.11-.5.11z" class="colord78972 svgShape"/><path fill="#d78972" d="M2297.47 1317.25c-.18 0-.36-.04-.53-.13-.57-.29-.8-.99-.51-1.56l6.01-11.76c.29-.57.99-.8 1.56-.51.57.29.8.99.51 1.56l-6.01 11.76c-.21.4-.61.63-1.04.63zM2228.9 1286.92c-.47 0-.92-.29-1.09-.76-.22-.6.09-1.27.69-1.49l2.33-.85c.6-.22 1.27.09 1.49.7.22.6-.09 1.27-.7 1.49l-2.33.85c-.13.05-.27.07-.4.07zM2238.33 1267.89c-.17 0-.35-.04-.52-.12-.57-.29-.81-.98-.52-1.56l5.84-11.77c.29-.57.98-.81 1.56-.52.57.29.81.98.52 1.56l-5.84 11.77c-.2.41-.61.65-1.04.65zM2256.2 1231.88c-.17 0-.35-.04-.52-.12-.58-.29-.81-.98-.52-1.56l.9-1.81c.29-.57.98-.81 1.56-.52.57.29.81.98.52 1.56l-.9 1.81c-.2.41-.61.65-1.04.65z" class="colord78972 svgShape"/></g></svg>